# xmcd
# 
# Track frame offsets:
#     150
#     43401
#     68937
#     103953
#     163004
#     225891
# 
# Disc length: 3387
# 
# Revision: 0
# Processed by: cddbd v1.5.2PL0 Copyright (c) Steve Scherf et al.
# Submitted via: BonkEnc v1.0.8
# 
DISCID=4d0d3906
DTITLE=Golo Mann - Achtzehnhundertachtundvierzig CD 4
DYEAR=2006
DGENRE=
TTITLE0=Ideen am Werk (1)
TTITLE1=Ideen am Werk (2)
TTITLE2=Ideen am Werk (3)
TTITLE3=Lassalle
TTITLE4=Arthur Schopenhauer
TTITLE5=Preuﬂisches Zwischenspiel
EXTD=
EXTT0=
EXTT1=
EXTT2=
EXTT3=
EXTT4=
EXTT5=
PLAYORDER=
